<svg xmlns="http://www.w3.org/2000/svg" viewBox="0 0 1000 210" width="1000" height="210" role="img" aria-label="telemetry">
<defs>
<radialGradient id="bgspace" cx="50%" cy="0%" r="90%">
<stop offset="0%" stop-color="#140502"/><stop offset="60%" stop-color="#070201"/><stop offset="100%" stop-color="#000"/>
</radialGradient>
<pattern id="scan2" width="4" height="4" patternUnits="userSpaceOnUse"><rect width="4" height="2" fill="#000" fill-opacity="0.26"/></pattern>
<clipPath id="p1"><rect x="20" y="30" width="300" height="160"/></clipPath>
<clipPath id="p2"><rect x="350" y="30" width="300" height="160"/></clipPath>
<clipPath id="p3"><rect x="680" y="30" width="300" height="160"/></clipPath>
</defs>
<rect width="1000" height="210" fill="url(#bgspace)"/>
<circle cx="362.6" cy="161.2" r="1.0" fill="#fff" fill-opacity="0.47"><animate attributeName="fill-opacity" values="0.47;0.09;0.47" dur="3.3s" repeatCount="indefinite"/></circle>
<circle cx="346.9" cy="15.7" r="1.0" fill="#fff" fill-opacity="0.31"><animate attributeName="fill-opacity" values="0.31;0.06;0.31" dur="3.0s" repeatCount="indefinite"/></circle>
<circle cx="976.6" cy="81.6" r="0.7" fill="#fff" fill-opacity="0.45"><animate attributeName="fill-opacity" values="0.45;0.09;0.45" dur="3.7s" repeatCount="indefinite"/></circle>
<circle cx="77.2" cy="192.3" r="0.7" fill="#fff" fill-opacity="0.33"><animate attributeName="fill-opacity" values="0.33;0.07;0.33" dur="3.8s" repeatCount="indefinite"/></circle>
<circle cx="857.8" cy="163.1" r="0.5" fill="#fff" fill-opacity="0.37"><animate attributeName="fill-opacity" values="0.37;0.07;0.37" dur="5.8s" repeatCount="indefinite"/></circle>
<circle cx="636.9" cy="195.2" r="0.7" fill="#fff" fill-opacity="0.3"><animate attributeName="fill-opacity" values="0.3;0.06;0.3" dur="5.2s" repeatCount="indefinite"/></circle>
<circle cx="167.4" cy="183.6" r="0.5" fill="#fff" fill-opacity="0.4"><animate attributeName="fill-opacity" values="0.4;0.08;0.4" dur="3.4s" repeatCount="indefinite"/></circle>
<circle cx="859.8" cy="54.3" r="0.5" fill="#fff" fill-opacity="0.4"><animate attributeName="fill-opacity" values="0.4;0.08;0.4" dur="2.2s" repeatCount="indefinite"/></circle>
<circle cx="311.8" cy="114.4" r="0.7" fill="#fff" fill-opacity="0.43"><animate attributeName="fill-opacity" values="0.43;0.09;0.43" dur="4.5s" repeatCount="indefinite"/></circle>
<circle cx="526.3" cy="109.4" r="0.7" fill="#fff" fill-opacity="0.45"><animate attributeName="fill-opacity" values="0.45;0.09;0.45" dur="3.6s" repeatCount="indefinite"/></circle>
<circle cx="766.7" cy="207.0" r="1.0" fill="#fff" fill-opacity="0.15"><animate attributeName="fill-opacity" values="0.15;0.03;0.15" dur="2.4s" repeatCount="indefinite"/></circle>
<circle cx="907.6" cy="114.3" r="0.7" fill="#fff" fill-opacity="0.42"><animate attributeName="fill-opacity" values="0.42;0.08;0.42" dur="4.4s" repeatCount="indefinite"/></circle>
<circle cx="936.7" cy="106.4" r="0.7" fill="#fff" fill-opacity="0.36"><animate attributeName="fill-opacity" values="0.36;0.07;0.36" dur="3.9s" repeatCount="indefinite"/></circle>
<circle cx="140.7" cy="161.9" r="0.7" fill="#fff" fill-opacity="0.5"><animate attributeName="fill-opacity" values="0.5;0.1;0.5" dur="3.5s" repeatCount="indefinite"/></circle>
<circle cx="433.4" cy="127.2" r="1.0" fill="#fff" fill-opacity="0.43"><animate attributeName="fill-opacity" values="0.43;0.09;0.43" dur="2.9s" repeatCount="indefinite"/></circle>
<circle cx="901.9" cy="78.1" r="1.0" fill="#fff" fill-opacity="0.43"><animate attributeName="fill-opacity" values="0.43;0.09;0.43" dur="4.8s" repeatCount="indefinite"/></circle>
<circle cx="883.2" cy="16.2" r="1.0" fill="#fff" fill-opacity="0.48"><animate attributeName="fill-opacity" values="0.48;0.1;0.48" dur="2.9s" repeatCount="indefinite"/></circle>
<circle cx="654.3" cy="68.6" r="0.7" fill="#fff" fill-opacity="0.46"><animate attributeName="fill-opacity" values="0.46;0.09;0.46" dur="4.5s" repeatCount="indefinite"/></circle>
<circle cx="523.9" cy="158.5" r="0.5" fill="#fff" fill-opacity="0.43"><animate attributeName="fill-opacity" values="0.43;0.09;0.43" dur="5.3s" repeatCount="indefinite"/></circle>
<circle cx="953.3" cy="33.3" r="1.0" fill="#fff" fill-opacity="0.5"><animate attributeName="fill-opacity" values="0.5;0.1;0.5" dur="4.7s" repeatCount="indefinite"/></circle>
<circle cx="992.5" cy="16.1" r="0.5" fill="#fff" fill-opacity="0.21"><animate attributeName="fill-opacity" values="0.21;0.04;0.21" dur="4.0s" repeatCount="indefinite"/></circle>
<circle cx="886.3" cy="46.7" r="1.0" fill="#fff" fill-opacity="0.26"><animate attributeName="fill-opacity" values="0.26;0.05;0.26" dur="5.7s" repeatCount="indefinite"/></circle>
<circle cx="406.1" cy="125.8" r="0.7" fill="#fff" fill-opacity="0.4"><animate attributeName="fill-opacity" values="0.4;0.08;0.4" dur="3.4s" repeatCount="indefinite"/></circle>
<circle cx="230.4" cy="68.6" r="1.0" fill="#fff" fill-opacity="0.34"><animate attributeName="fill-opacity" values="0.34;0.07;0.34" dur="3.9s" repeatCount="indefinite"/></circle>
<circle cx="802.9" cy="106.3" r="0.7" fill="#fff" fill-opacity="0.25"><animate attributeName="fill-opacity" values="0.25;0.05;0.25" dur="3.8s" repeatCount="indefinite"/></circle>
<circle cx="13.2" cy="38.6" r="1.0" fill="#fff" fill-opacity="0.31"><animate attributeName="fill-opacity" values="0.31;0.06;0.31" dur="4.3s" repeatCount="indefinite"/></circle>
<circle cx="826.0" cy="84.9" r="0.7" fill="#fff" fill-opacity="0.37"><animate attributeName="fill-opacity" values="0.37;0.07;0.37" dur="2.8s" repeatCount="indefinite"/></circle>
<circle cx="67.7" cy="204.5" r="1.0" fill="#fff" fill-opacity="0.47"><animate attributeName="fill-opacity" values="0.47;0.09;0.47" dur="4.5s" repeatCount="indefinite"/></circle>
<circle cx="312.2" cy="19.2" r="0.7" fill="#fff" fill-opacity="0.32"><animate attributeName="fill-opacity" values="0.32;0.06;0.32" dur="4.6s" repeatCount="indefinite"/></circle>
<circle cx="476.8" cy="126.8" r="0.5" fill="#fff" fill-opacity="0.2"><animate attributeName="fill-opacity" values="0.2;0.04;0.2" dur="3.1s" repeatCount="indefinite"/></circle>
<circle cx="299.2" cy="199.1" r="0.5" fill="#fff" fill-opacity="0.29"><animate attributeName="fill-opacity" values="0.29;0.06;0.29" dur="4.4s" repeatCount="indefinite"/></circle>
<circle cx="620.7" cy="149.7" r="1.0" fill="#fff" fill-opacity="0.24"><animate attributeName="fill-opacity" values="0.24;0.05;0.24" dur="4.2s" repeatCount="indefinite"/></circle>
<circle cx="157.5" cy="20.3" r="0.5" fill="#fff" fill-opacity="0.48"><animate attributeName="fill-opacity" values="0.48;0.1;0.48" dur="2.5s" repeatCount="indefinite"/></circle>
<circle cx="270.6" cy="184.5" r="1.0" fill="#fff" fill-opacity="0.25"><animate attributeName="fill-opacity" values="0.25;0.05;0.25" dur="5.6s" repeatCount="indefinite"/></circle>
<g fill="#050201" stroke="#ff6a00" stroke-opacity="0.7">
<rect x="20" y="30" width="300" height="160"/><rect x="350" y="30" width="300" height="160"/><rect x="680" y="30" width="300" height="160"/>
</g>
<g clip-path="url(#p1)">
<g><animateTransform attributeName="transform" type="translate" from="0 0" to="-600 0" dur="9s" repeatCount="indefinite"/>
<path d="M20 110 L24 119.0 L28 140 L32 106.1 L36 97 L40 128.0 L44 97 L48 101.0 L52 140 L56 80 L60 80 L64 104 L68 101.0 L72 113.9 L76 104 L80 111.8 L84 80 L88 128.0 L92 131 L96 113.6 L100 106.4 L104 80 L108 103.7 L112 97.4 L116 131 L120 80 L124 104 L128 101.0 L132 116.3 L136 131 L140 106.4 L144 123 L148 113.6 L152 101.0 L156 89 L160 104 L164 80 L168 119.0 L172 97 L176 140 L180 106.1 L184 131 L188 116.3 L192 104 L196 113.6 L200 80 L204 106.1 L208 89 L212 97 L216 128.0 L220 92.0 L224 111.8 L228 89 L232 89 L236 104 L240 117.8 L244 140 L248 140 L252 131 L256 102.2 L260 104 L264 104 L268 108.2 L272 140 L276 131 L280 89 L284 92.0 L288 108.2 L292 111.8 L296 128.0 L300 97 L304 97 L308 140 L312 116 L316 104 L320 97.4 L324 116.3 L328 104 L332 80 L336 113.6 L340 97 L344 123 L348 128.0 L352 97 L356 101.0 L360 117.8 L364 80 L368 103.7 L372 97.4 L376 123 L380 89 L384 128.0 L388 80 L392 117.8 L396 103.7 L400 103.7 L404 101.0 L408 101.0 L412 131 L416 89 L420 89 L424 111.8 L428 113.9 L432 119.0 L436 140 L440 92.0 L444 103.7 L448 80 L452 103.7 L456 128.0 L460 92.0 L464 116 L468 104 L472 113.9 L476 140 L480 113.9 L484 116 L488 131 L492 108.2 L496 106.4 L500 104 L504 106.1 L508 123 L512 97.4 L516 97 L520 119.0 L524 116 L528 116.3 L532 128.0 L536 128.0 L540 89 L544 116 L548 113.6 L552 116 L556 106.1 L560 140 L564 92.0 L568 104 L572 80 L576 140 L580 123 L584 104 L588 128.0 L592 97 L596 140 L600 97 L604 113.6 L608 106.1 L612 104 L616 116.3 L624 119.0 L628 140 L632 106.1 L636 97 L640 128.0 L644 97 L648 101.0 L652 140 L656 80 L660 80 L664 104 L668 101.0 L672 113.9 L676 104 L680 111.8 L684 80 L688 128.0 L692 131 L696 113.6 L700 106.4 L704 80 L708 103.7 L712 97.4 L716 131 L720 80 L724 104 L728 101.0 L732 116.3 L736 131 L740 106.4 L744 123 L748 113.6 L752 101.0 L756 89 L760 104 L764 80 L768 119.0 L772 97 L776 140 L780 106.1 L784 131 L788 116.3 L792 104 L796 113.6 L800 80 L804 106.1 L808 89 L812 97 L816 128.0 L820 92.0 L824 111.8 L828 89 L832 89 L836 104 L840 117.8 L844 140 L848 140 L852 131 L856 102.2 L860 104 L864 104 L868 108.2 L872 140 L876 131 L880 89 L884 92.0 L888 108.2 L892 111.8 L896 128.0 L900 97 L904 97 L908 140 L912 116 L916 104 L920 97.4 L924 116.3 L928 104 L932 80 L936 113.6 L940 97 L944 123 L948 128.0 L952 97 L956 101.0 L960 117.8 L964 80 L968 103.7 L972 97.4 L976 123 L980 89 L984 128.0 L988 80 L992 117.8 L996 103.7 L1000 103.7 L1004 101.0 L1008 101.0 L1012 131 L1016 89 L1020 89 L1024 111.8 L1028 113.9 L1032 119.0 L1036 140 L1040 92.0 L1044 103.7 L1048 80 L1052 103.7 L1056 128.0 L1060 92.0 L1064 116 L1068 104 L1072 113.9 L1076 140 L1080 113.9 L1084 116 L1088 131 L1092 108.2 L1096 106.4 L1100 104 L1104 106.1 L1108 123 L1112 97.4 L1116 97 L1120 119.0 L1124 116 L1128 116.3 L1132 128.0 L1136 128.0 L1140 89 L1144 116 L1148 113.6 L1152 116 L1156 106.1 L1160 140 L1164 92.0 L1168 104 L1172 80 L1176 140 L1180 123 L1184 104 L1188 128.0 L1192 97 L1196 140 L1200 97 L1204 113.6 L1208 106.1 L1212 104 L1216 116.3" fill="none" stroke="#ff6a00" stroke-width="1.6" opacity="0.9"/></g>
</g>
<g clip-path="url(#p2)">
<g transform="translate(500 108)"><g><line x1="-30" y1="-30" x2="30" y2="-30" stroke="#ff6a00" stroke-width="1.4" stroke-opacity="0.85"/><line x1="30" y1="-30" x2="30" y2="30" stroke="#ff6a00" stroke-width="1.4" stroke-opacity="0.85"/><line x1="30" y1="30" x2="-30" y2="30" stroke="#ff6a00" stroke-width="1.4" stroke-opacity="0.85"/><line x1="-30" y1="30" x2="-30" y2="-30" stroke="#ff6a00" stroke-width="1.4" stroke-opacity="0.85"/><line x1="-16" y1="-44" x2="44" y2="-44" stroke="#ff6a00" stroke-width="1.4" stroke-opacity="0.85"/><line x1="44" y1="-44" x2="44" y2="16" stroke="#ff6a00" stroke-width="1.4" stroke-opacity="0.85"/><line x1="44" y1="16" x2="-16" y2="16" stroke="#ff6a00" stroke-width="1.4" stroke-opacity="0.85"/><line x1="-16" y1="16" x2="-16" y2="-44" stroke="#ff6a00" stroke-width="1.4" stroke-opacity="0.85"/><line x1="-30" y1="-30" x2="-16" y2="-44" stroke="#ff6a00" stroke-width="1.4" stroke-opacity="0.85"/><line x1="30" y1="-30" x2="44" y2="-44" stroke="#ff6a00" stroke-width="1.4" stroke-opacity="0.85"/><line x1="30" y1="30" x2="44" y2="16" stroke="#ff6a00" stroke-width="1.4" stroke-opacity="0.85"/><line x1="-30" y1="30" x2="-16" y2="16" stroke="#ff6a00" stroke-width="1.4" stroke-opacity="0.85"/>
<animateTransform attributeName="transform" type="rotate" from="0" to="360" dur="14s" repeatCount="indefinite"/></g>
<circle r="3" fill="#c1121f"><animate attributeName="r" values="2;5;2" dur="1.8s" repeatCount="indefinite"/></circle></g>
</g>
<g clip-path="url(#p3)"><g><text x="692" y="0" font-family="monospace" font-size="11" fill="#ff6a00" fill-opacity="0.9">3C</text><text x="692" y="18" font-family="monospace" font-size="11" fill="#ff6a00" fill-opacity="0.79">F4</text><text x="692" y="36" font-family="monospace" font-size="11" fill="#ff6a00" fill-opacity="0.68">22</text><text x="692" y="54" font-family="monospace" font-size="11" fill="#ff6a00" fill-opacity="0.57">0C</text><text x="692" y="72" font-family="monospace" font-size="11" fill="#ff6a00" fill-opacity="0.46">91</text><text x="692" y="90" font-family="monospace" font-size="11" fill="#ff6a00" fill-opacity="0.35">7B</text><text x="692" y="108" font-family="monospace" font-size="11" fill="#ff6a00" fill-opacity="0.24">85</text><text x="692" y="126" font-family="monospace" font-size="11" fill="#ff6a00" fill-opacity="0.15">38</text><text x="692" y="144" font-family="monospace" font-size="11" fill="#ff6a00" fill-opacity="0.15">60</text><text x="692" y="162" font-family="monospace" font-size="11" fill="#ff6a00" fill-opacity="0.15">88</text><animateTransform attributeName="transform" type="translate" from="0 20" to="0 190" dur="3.1s" repeatCount="indefinite"/></g><g><text x="722" y="0" font-family="monospace" font-size="11" fill="#ff6a00" fill-opacity="0.9">99</text><text x="722" y="18" font-family="monospace" font-size="11" fill="#ff6a00" fill-opacity="0.79">B2</text><text x="722" y="36" font-family="monospace" font-size="11" fill="#ff6a00" fill-opacity="0.68">AC</text><text x="722" y="54" font-family="monospace" font-size="11" fill="#ff6a00" fill-opacity="0.57">75</text><text x="722" y="72" font-family="monospace" font-size="11" fill="#ff6a00" fill-opacity="0.46">7F</text><text x="722" y="90" font-family="monospace" font-size="11" fill="#ff6a00" fill-opacity="0.35">82</text><text x="722" y="108" font-family="monospace" font-size="11" fill="#ff6a00" fill-opacity="0.24">90</text><text x="722" y="126" font-family="monospace" font-size="11" fill="#ff6a00" fill-opacity="0.15">99</text><text x="722" y="144" font-family="monospace" font-size="11" fill="#ff6a00" fill-opacity="0.15">6D</text><text x="722" y="162" font-family="monospace" font-size="11" fill="#ff6a00" fill-opacity="0.15">D9</text><animateTransform attributeName="transform" type="translate" from="0 20" to="0 190" dur="2.9s" repeatCount="indefinite"/></g><g><text x="752" y="0" font-family="monospace" font-size="11" fill="#ff6a00" fill-opacity="0.9">57</text><text x="752" y="18" font-family="monospace" font-size="11" fill="#ff6a00" fill-opacity="0.79">98</text><text x="752" y="36" font-family="monospace" font-size="11" fill="#ff6a00" fill-opacity="0.68">12</text><text x="752" y="54" font-family="monospace" font-size="11" fill="#ff6a00" fill-opacity="0.57">1E</text><text x="752" y="72" font-family="monospace" font-size="11" fill="#ff6a00" fill-opacity="0.46">8F</text><text x="752" y="90" font-family="monospace" font-size="11" fill="#ff6a00" fill-opacity="0.35">A4</text><text x="752" y="108" font-family="monospace" font-size="11" fill="#ff6a00" fill-opacity="0.24">62</text><text x="752" y="126" font-family="monospace" font-size="11" fill="#ff6a00" fill-opacity="0.15">D6</text><text x="752" y="144" font-family="monospace" font-size="11" fill="#ff6a00" fill-opacity="0.15">E8</text><text x="752" y="162" font-family="monospace" font-size="11" fill="#ff6a00" fill-opacity="0.15">5B</text><animateTransform attributeName="transform" type="translate" from="0 20" to="0 190" dur="3.6s" repeatCount="indefinite"/></g><g><text x="782" y="0" font-family="monospace" font-size="11" fill="#ff6a00" fill-opacity="0.9">A6</text><text x="782" y="18" font-family="monospace" font-size="11" fill="#ff6a00" fill-opacity="0.79">A3</text><text x="782" y="36" font-family="monospace" font-size="11" fill="#ff6a00" fill-opacity="0.68">17</text><text x="782" y="54" font-family="monospace" font-size="11" fill="#ff6a00" fill-opacity="0.57">87</text><text x="782" y="72" font-family="monospace" font-size="11" fill="#ff6a00" fill-opacity="0.46">3A</text><text x="782" y="90" font-family="monospace" font-size="11" fill="#ff6a00" fill-opacity="0.35">59</text><text x="782" y="108" font-family="monospace" font-size="11" fill="#ff6a00" fill-opacity="0.24">E0</text><text x="782" y="126" font-family="monospace" font-size="11" fill="#ff6a00" fill-opacity="0.15">1B</text><text x="782" y="144" font-family="monospace" font-size="11" fill="#ff6a00" fill-opacity="0.15">29</text><text x="782" y="162" font-family="monospace" font-size="11" fill="#ff6a00" fill-opacity="0.15">A0</text><animateTransform attributeName="transform" type="translate" from="0 20" to="0 190" dur="3.6s" repeatCount="indefinite"/></g><g><text x="812" y="0" font-family="monospace" font-size="11" fill="#ff6a00" fill-opacity="0.9">A4</text><text x="812" y="18" font-family="monospace" font-size="11" fill="#ff6a00" fill-opacity="0.79">D2</text><text x="812" y="36" font-family="monospace" font-size="11" fill="#ff6a00" fill-opacity="0.68">96</text><text x="812" y="54" font-family="monospace" font-size="11" fill="#ff6a00" fill-opacity="0.57">E9</text><text x="812" y="72" font-family="monospace" font-size="11" fill="#ff6a00" fill-opacity="0.46">48</text><text x="812" y="90" font-family="monospace" font-size="11" fill="#ff6a00" fill-opacity="0.35">C5</text><text x="812" y="108" font-family="monospace" font-size="11" fill="#ff6a00" fill-opacity="0.24">A0</text><text x="812" y="126" font-family="monospace" font-size="11" fill="#ff6a00" fill-opacity="0.15">B1</text><text x="812" y="144" font-family="monospace" font-size="11" fill="#ff6a00" fill-opacity="0.15">E5</text><text x="812" y="162" font-family="monospace" font-size="11" fill="#ff6a00" fill-opacity="0.15">BB</text><animateTransform attributeName="transform" type="translate" from="0 20" to="0 190" dur="3.3s" repeatCount="indefinite"/></g><g><text x="842" y="0" font-family="monospace" font-size="11" fill="#ff6a00" fill-opacity="0.9">3E</text><text x="842" y="18" font-family="monospace" font-size="11" fill="#ff6a00" fill-opacity="0.79">6D</text><text x="842" y="36" font-family="monospace" font-size="11" fill="#ff6a00" fill-opacity="0.68">63</text><text x="842" y="54" font-family="monospace" font-size="11" fill="#ff6a00" fill-opacity="0.57">11</text><text x="842" y="72" font-family="monospace" font-size="11" fill="#ff6a00" fill-opacity="0.46">15</text><text x="842" y="90" font-family="monospace" font-size="11" fill="#ff6a00" fill-opacity="0.35">41</text><text x="842" y="108" font-family="monospace" font-size="11" fill="#ff6a00" fill-opacity="0.24">F7</text><text x="842" y="126" font-family="monospace" font-size="11" fill="#ff6a00" fill-opacity="0.15">A1</text><text x="842" y="144" font-family="monospace" font-size="11" fill="#ff6a00" fill-opacity="0.15">39</text><text x="842" y="162" font-family="monospace" font-size="11" fill="#ff6a00" fill-opacity="0.15">D6</text><animateTransform attributeName="transform" type="translate" from="0 20" to="0 190" dur="5.2s" repeatCount="indefinite"/></g><g><text x="872" y="0" font-family="monospace" font-size="11" fill="#ff6a00" fill-opacity="0.9">7E</text><text x="872" y="18" font-family="monospace" font-size="11" fill="#ff6a00" fill-opacity="0.79">DF</text><text x="872" y="36" font-family="monospace" font-size="11" fill="#ff6a00" fill-opacity="0.68">17</text><text x="872" y="54" font-family="monospace" font-size="11" fill="#ff6a00" fill-opacity="0.57">DE</text><text x="872" y="72" font-family="monospace" font-size="11" fill="#ff6a00" fill-opacity="0.46">7D</text><text x="872" y="90" font-family="monospace" font-size="11" fill="#ff6a00" fill-opacity="0.35">6F</text><text x="872" y="108" font-family="monospace" font-size="11" fill="#ff6a00" fill-opacity="0.24">61</text><text x="872" y="126" font-family="monospace" font-size="11" fill="#ff6a00" fill-opacity="0.15">18</text><text x="872" y="144" font-family="monospace" font-size="11" fill="#ff6a00" fill-opacity="0.15">87</text><text x="872" y="162" font-family="monospace" font-size="11" fill="#ff6a00" fill-opacity="0.15">67</text><animateTransform attributeName="transform" type="translate" from="0 20" to="0 190" dur="3.7s" repeatCount="indefinite"/></g><g><text x="902" y="0" font-family="monospace" font-size="11" fill="#ff6a00" fill-opacity="0.9">84</text><text x="902" y="18" font-family="monospace" font-size="11" fill="#ff6a00" fill-opacity="0.79">A1</text><text x="902" y="36" font-family="monospace" font-size="11" fill="#ff6a00" fill-opacity="0.68">A3</text><text x="902" y="54" font-family="monospace" font-size="11" fill="#ff6a00" fill-opacity="0.57">C1</text><text x="902" y="72" font-family="monospace" font-size="11" fill="#ff6a00" fill-opacity="0.46">FC</text><text x="902" y="90" font-family="monospace" font-size="11" fill="#ff6a00" fill-opacity="0.35">2D</text><text x="902" y="108" font-family="monospace" font-size="11" fill="#ff6a00" fill-opacity="0.24">65</text><text x="902" y="126" font-family="monospace" font-size="11" fill="#ff6a00" fill-opacity="0.15">A9</text><text x="902" y="144" font-family="monospace" font-size="11" fill="#ff6a00" fill-opacity="0.15">FA</text><text x="902" y="162" font-family="monospace" font-size="11" fill="#ff6a00" fill-opacity="0.15">D6</text><animateTransform attributeName="transform" type="translate" from="0 20" to="0 190" dur="3.6s" repeatCount="indefinite"/></g><g><text x="932" y="0" font-family="monospace" font-size="11" fill="#ff6a00" fill-opacity="0.9">8A</text><text x="932" y="18" font-family="monospace" font-size="11" fill="#ff6a00" fill-opacity="0.79">CF</text><text x="932" y="36" font-family="monospace" font-size="11" fill="#ff6a00" fill-opacity="0.68">28</text><text x="932" y="54" font-family="monospace" font-size="11" fill="#ff6a00" fill-opacity="0.57">61</text><text x="932" y="72" font-family="monospace" font-size="11" fill="#ff6a00" fill-opacity="0.46">C4</text><text x="932" y="90" font-family="monospace" font-size="11" fill="#ff6a00" fill-opacity="0.35">81</text><text x="932" y="108" font-family="monospace" font-size="11" fill="#ff6a00" fill-opacity="0.24">5E</text><text x="932" y="126" font-family="monospace" font-size="11" fill="#ff6a00" fill-opacity="0.15">FC</text><text x="932" y="144" font-family="monospace" font-size="11" fill="#ff6a00" fill-opacity="0.15">C6</text><text x="932" y="162" font-family="monospace" font-size="11" fill="#ff6a00" fill-opacity="0.15">06</text><animateTransform attributeName="transform" type="translate" from="0 20" to="0 190" dur="4.2s" repeatCount="indefinite"/></g><g><text x="962" y="0" font-family="monospace" font-size="11" fill="#ff6a00" fill-opacity="0.9">08</text><text x="962" y="18" font-family="monospace" font-size="11" fill="#ff6a00" fill-opacity="0.79">3C</text><text x="962" y="36" font-family="monospace" font-size="11" fill="#ff6a00" fill-opacity="0.68">C7</text><text x="962" y="54" font-family="monospace" font-size="11" fill="#ff6a00" fill-opacity="0.57">16</text><text x="962" y="72" font-family="monospace" font-size="11" fill="#ff6a00" fill-opacity="0.46">5A</text><text x="962" y="90" font-family="monospace" font-size="11" fill="#ff6a00" fill-opacity="0.35">FE</text><text x="962" y="108" font-family="monospace" font-size="11" fill="#ff6a00" fill-opacity="0.24">02</text><text x="962" y="126" font-family="monospace" font-size="11" fill="#ff6a00" fill-opacity="0.15">13</text><text x="962" y="144" font-family="monospace" font-size="11" fill="#ff6a00" fill-opacity="0.15">F8</text><text x="962" y="162" font-family="monospace" font-size="11" fill="#ff6a00" fill-opacity="0.15">41</text><animateTransform attributeName="transform" type="translate" from="0 20" to="0 190" dur="5.0s" repeatCount="indefinite"/></g></g>
<rect x="20" y="164" width="300" height="26" fill="#050201" fill-opacity="0.92"/><line x1="20" y1="164" x2="320" y2="164" stroke="#ff6a00" stroke-opacity="0.45"/><text x="34" y="181" font-family="monospace" font-size="10" letter-spacing="2" fill="#ff6a00" opacity="0.8">SIGNAL</text><rect x="350" y="164" width="300" height="26" fill="#050201" fill-opacity="0.92"/><line x1="350" y1="164" x2="650" y2="164" stroke="#ff6a00" stroke-opacity="0.45"/><text x="364" y="181" font-family="monospace" font-size="10" letter-spacing="2" fill="#ff6a00" opacity="0.8">GEOMETRY</text><rect x="680" y="164" width="300" height="26" fill="#050201" fill-opacity="0.92"/><line x1="680" y1="164" x2="980" y2="164" stroke="#ff6a00" stroke-opacity="0.45"/><text x="694" y="181" font-family="monospace" font-size="10" letter-spacing="2" fill="#ff6a00" opacity="0.8">DATA STREAM</text>
<g fill="none" stroke="#ff6a00" stroke-opacity="0.7">
<rect x="20" y="30" width="300" height="160"/><rect x="350" y="30" width="300" height="160"/><rect x="680" y="30" width="300" height="160"/>
</g>
<rect width="1000" height="210" fill="url(#scan2)"/>
</svg>